# xmcd
#
# Track frame offsets: 
#        150
#        12204
#        28012
#        42176
#        55892
#        67237
#        80217
#        92915
#        103032
#        114723
#        126012
#        138449
#        159865
#
# Disc length: 3025 seconds
#
# Revision: 0
# Processed by: cddbd v1.5.2PL0 Copyright (c) Steve Scherf et al.
# Submitted via: ExactAudioCopy v0.99pb5
#
DISCID=b10bcf0d
DTITLE=Curtis Potter - When The Neon Lights Come On
DYEAR=2008
DGENRE=Country
TTITLE0=When The Neon Lights Come On
TTITLE1=I Need Help
TTITLE2=Just A Foolish Notion
TTITLE3=Wish You'd Stayed Around
TTITLE4=When She Turns You On
TTITLE5=Story Behind The Photograph
TTITLE6=She Wears Faded Jeans
TTITLE7=I Believe In You
TTITLE8=I Can't Make It Without You
TTITLE9=I'll Be There
TTITLE10=Nothing Can Stand In My Way
TTITLE11=Texas Proud
TTITLE12=Photos
EXTD=
EXTT0=
EXTT1=
EXTT2=
EXTT3=
EXTT4=
EXTT5=
EXTT6=
EXTT7=
EXTT8=
EXTT9=
EXTT10=
EXTT11=
EXTT12=
PLAYORDER=
